<?xml version="1.0" encoding="utf-8"?>
<!-- Generator: Adobe Illustrator 26.0.2, SVG Export Plug-In . SVG Version: 6.00 Build 0)  -->
<svg version="1.1" id="Layer_1" xmlns="http://www.w3.org/2000/svg" xmlns:xlink="http://www.w3.org/1999/xlink" x="0px" y="0px"
	 viewBox="0 0 25 20.4" style="enable-background:new 0 0 25 20.4;" xml:space="preserve">
<style type="text/css">
	.st0{fill:#FFFFFF;}
</style>
<g>
	<polygon class="st0" points="0.3,0.3 0.3,4.9 2.8,4.9 2.8,20.3 7.7,20.3 7.7,0.3 2.8,0.3 	"/>
	<path class="st0" d="M24.4,15.1L24.4,15.1l-1.2-0.7c0.1-0.6,0.1-1.3,0-1.9l1.2-0.7c0.1-0.1,0.2-0.2,0.2-0.4c-0.3-1-0.8-1.9-1.5-2.6
		c-0.1-0.1-0.3-0.1-0.4-0.1l-1.2,0.7c-0.5-0.4-1.1-0.8-1.7-1V7c0-0.2-0.1-0.3-0.3-0.3c-1-0.2-2-0.2-3,0c-0.2,0-0.3,0.2-0.3,0.3v1.4
		c-0.6,0.2-1.2,0.5-1.7,1l-1.2-0.7c-0.1-0.1-0.3-0.1-0.4,0.1c-0.7,0.8-1.2,1.6-1.5,2.6c0,0.1,0,0.3,0.2,0.4l1.2,0.7
		c-0.1,0.6-0.1,1.3,0,1.9l-1.2,0.7c-0.1,0.1-0.2,0.2-0.2,0.4c0.3,1,0.8,1.9,1.5,2.6c0.1,0.1,0.3,0.1,0.4,0.1l1.2-0.7
		c0.5,0.4,1.1,0.8,1.7,1v1.4c0,0.2,0.1,0.3,0.3,0.3c1,0.2,2,0.2,3,0c0.2,0,0.3-0.2,0.3-0.3v-1.4c0.6-0.2,1.2-0.5,1.7-1l1.2,0.7
		c0.1,0.1,0.3,0.1,0.4-0.1c0.7-0.8,1.2-1.6,1.5-2.6C24.6,15.3,24.5,15.2,24.4,15.1z M17.9,15.6L17.9,15.6c-1.2,0-2.2-1-2.2-2.2
		c0-1.2,1-2.2,2.2-2.2c1.2,0,2.2,1,2.2,2.2C20.2,14.6,19.2,15.6,17.9,15.6z"/>
</g>
</svg>
